<svg width="23" height="27" viewBox="0 0 23 27" fill="none" xmlns="http://www.w3.org/2000/svg">
<path fill-rule="evenodd" clip-rule="evenodd" d="M16.6247 0.153809C15.2941 0.209447 13.6817 1.03748 12.7275 2.15074C11.8697 3.13939 11.1209 4.71722 11.3227 6.23012C12.8084 6.34597 14.3222 5.47832 15.2469 4.3645C16.1698 3.24867 16.7947 1.70017 16.6247 0.153809ZM16.2486 26.4829C18.0515 26.4495 19.1934 24.8521 20.2974 23.2449C21.507 21.4845 22.0411 19.7776 22.1208 19.5231C22.1252 19.5089 22.1282 19.4993 22.1299 19.4943C22.1291 19.494 22.1268 19.4931 22.1232 19.4916C21.9498 19.4214 18.6127 18.0698 18.5796 14.163C18.547 10.9368 21.1297 9.3319 21.414 9.15521C21.4239 9.14907 21.431 9.14466 21.4352 9.14196C19.8806 6.87728 17.46 6.56675 16.5975 6.53128C15.3376 6.40438 14.1154 6.8841 13.1167 7.27606C12.4821 7.52514 11.9378 7.73878 11.5315 7.73878C11.0793 7.73878 10.5201 7.51769 9.89247 7.26956C9.07102 6.94481 8.13244 6.57374 7.16346 6.5915C4.91909 6.62496 2.84797 7.89269 1.69214 9.89634C-0.641946 13.9309 1.09357 19.9093 3.36745 23.1806C4.48048 24.7806 5.80396 26.5813 7.5445 26.5164C8.32164 26.4854 8.87472 26.2507 9.4467 26.0081C10.1078 25.7277 10.7941 25.4366 11.8807 25.4366C12.9156 25.4366 13.5701 25.7187 14.1997 25.9901C14.8019 26.2496 15.3812 26.4993 16.2486 26.4829Z" fill="white"/>
</svg>
